<svg xmlns="http://www.w3.org/2000/svg" xmlns:xlink="http://www.w3.org/1999/xlink" width="212" zoomAndPan="magnify" viewBox="0 0 159 158.249993" height="211" preserveAspectRatio="xMidYMid meet" version="1.0"><defs><clipPath id="ae0d8a85a2"><path d="M 0.375 0 L 157.878906 0 L 157.878906 156.757812 L 0.375 156.757812 Z M 0.375 0 " clip-rule="nonzero"/></clipPath><clipPath id="48f243e4a9"><path d="M 79.136719 0 C 35.636719 0 0.375 35.167969 0.375 78.546875 C 0.375 121.925781 35.636719 157.09375 79.136719 157.09375 C 122.636719 157.09375 157.902344 121.925781 157.902344 78.546875 C 157.902344 35.167969 122.636719 0 79.136719 0 Z M 79.136719 0 " clip-rule="nonzero"/></clipPath><clipPath id="2c21a5b9a7"><path d="M 13.035156 12.625 L 145.398438 12.625 L 145.398438 144.472656 L 13.035156 144.472656 Z M 13.035156 12.625 " clip-rule="nonzero"/></clipPath><clipPath id="918de90c0c"><path d="M 79.140625 12.625 C 42.632812 12.625 13.035156 42.140625 13.035156 78.550781 C 13.035156 114.957031 42.632812 144.472656 79.140625 144.472656 C 115.652344 144.472656 145.246094 114.957031 145.246094 78.550781 C 145.246094 42.140625 115.652344 12.625 79.140625 12.625 Z M 79.140625 12.625 " clip-rule="nonzero"/></clipPath></defs><g clip-path="url(#ae0d8a85a2)"><g clip-path="url(#48f243e4a9)"><path stroke-linecap="butt" transform="matrix(0.746462, 0, 0, 0.746462, 0.375003, 0.00179165)" fill="none" stroke-linejoin="miter" d="M 105.513334 -0.00240018 C 47.238447 -0.00240018 -0.00000442085 47.110459 -0.00000442085 105.223122 C -0.00000442085 163.335785 47.238447 210.448644 105.513334 210.448644 C 163.78822 210.448644 211.031905 163.335785 211.031905 105.223122 C 211.031905 47.110459 163.78822 -0.00240018 105.513334 -0.00240018 Z M 105.513334 -0.00240018 " stroke="#ffffff" stroke-width="22" stroke-opacity="1" stroke-miterlimit="4"/></g></g><g clip-path="url(#2c21a5b9a7)"><g clip-path="url(#918de90c0c)"><path fill="#cccccc" d="M 13.035156 12.625 L 145.398438 12.625 L 145.398438 144.472656 L 13.035156 144.472656 Z M 13.035156 12.625 " fill-opacity="1" fill-rule="nonzero"/></g></g></svg>