<svg xmlns="http://www.w3.org/2000/svg" xmlns:xlink="http://www.w3.org/1999/xlink" width="132" zoomAndPan="magnify" viewBox="0 0 98.88 98.999996" height="132" preserveAspectRatio="xMidYMid meet" version="1.0"><defs><clipPath id="2c00ef81e4"><path d="M 0 0.0585938 L 98.636719 0.0585938 L 98.636719 98.3125 L 0 98.3125 Z M 0 0.0585938 " clip-rule="nonzero"/></clipPath><clipPath id="cbf2f3db74"><path d="M 49.261719 0.0585938 C 22.054688 0.0585938 0 22.054688 0 49.1875 C 0 76.320312 22.054688 98.3125 49.261719 98.3125 C 76.46875 98.3125 98.527344 76.320312 98.527344 49.1875 C 98.527344 22.054688 76.46875 0.0585938 49.261719 0.0585938 Z M 49.261719 0.0585938 " clip-rule="nonzero"/></clipPath><clipPath id="9344760618"><path d="M 11.265625 49 L 24 49 L 24 61 L 11.265625 61 Z M 11.265625 49 " clip-rule="nonzero"/></clipPath><clipPath id="3170d79ccb"><path d="M 14 49 L 74 49 L 74 83.597656 L 14 83.597656 Z M 14 49 " clip-rule="nonzero"/></clipPath><clipPath id="0149d05435"><path d="M 75 40 L 86.921875 40 L 86.921875 52 L 75 52 Z M 75 40 " clip-rule="nonzero"/></clipPath></defs><g clip-path="url(#2c00ef81e4)"><g clip-path="url(#cbf2f3db74)"><path fill="#2e2f31" d="M 0 0.0585938 L 98.636719 0.0585938 L 98.636719 98.3125 L 0 98.3125 Z M 0 0.0585938 " fill-opacity="1" fill-rule="nonzero"/></g></g><g clip-path="url(#9344760618)"><path fill="#ffffff" d="M 12.261719 60.832031 C 11.617188 60.59375 11.285156 59.855469 11.523438 59.207031 L 14.859375 50.261719 C 15.097656 49.613281 15.839844 49.285156 16.484375 49.519531 C 16.6875 49.597656 16.878906 49.726562 17.019531 49.898438 L 23.101562 57.269531 C 23.542969 57.804688 23.460938 58.609375 22.925781 59.050781 C 22.390625 59.492188 21.585938 59.414062 21.148438 58.878906 L 16.453125 53.191406 L 13.867188 60.089844 C 13.632812 60.734375 12.90625 61.066406 12.261719 60.832031 Z M 12.261719 60.832031 " fill-opacity="1" fill-rule="nonzero"/></g><path fill="#ffffff" d="M 64.65625 64.59375 L 33.167969 64.59375 C 30.597656 64.59375 28.519531 62.515625 28.519531 59.949219 L 28.519531 46.511719 C 28.519531 43.945312 30.597656 41.863281 33.167969 41.863281 L 35.953125 41.863281 C 36.882812 41.863281 37.71875 41.25 37.988281 40.367188 L 39.089844 36.761719 C 39.671875 34.808594 41.484375 33.46875 43.53125 33.46875 L 54.289062 33.46875 C 56.339844 33.453125 58.132812 34.789062 58.734375 36.761719 L 59.835938 40.367188 C 60.105469 41.265625 60.9375 41.878906 61.867188 41.863281 L 64.65625 41.863281 C 67.222656 41.863281 69.304688 43.945312 69.304688 46.511719 L 69.304688 59.949219 C 69.304688 62.515625 67.222656 64.578125 64.65625 64.59375 Z M 33.167969 44.382812 C 32 44.382812 31.039062 45.328125 31.039062 46.511719 L 31.039062 59.949219 C 31.039062 61.113281 31.984375 62.074219 33.167969 62.074219 L 64.65625 62.074219 C 65.820312 62.074219 66.78125 61.128906 66.78125 59.949219 L 66.78125 46.511719 C 66.78125 45.34375 65.835938 44.382812 64.65625 44.382812 L 61.867188 44.382812 C 59.820312 44.398438 58.023438 43.0625 57.425781 41.09375 L 56.324219 37.484375 C 56.054688 36.585938 55.21875 35.972656 54.289062 35.988281 L 43.53125 35.988281 C 42.601562 35.988281 41.765625 36.601562 41.5 37.484375 L 40.398438 41.09375 C 39.8125 43.046875 38.003906 44.382812 35.953125 44.382812 Z M 33.167969 44.382812 " fill-opacity="1" fill-rule="nonzero"/><path fill="#ffffff" d="M 52.117188 42.289062 L 45.722656 42.289062 C 45.027344 42.289062 44.460938 41.722656 44.460938 41.027344 C 44.460938 40.335938 45.027344 39.769531 45.722656 39.769531 L 52.117188 39.769531 C 52.808594 39.769531 53.378906 40.335938 53.378906 41.027344 C 53.378906 41.722656 52.808594 42.289062 52.117188 42.289062 Z M 52.117188 42.289062 " fill-opacity="1" fill-rule="nonzero"/><path fill="#ffffff" d="M 48.917969 59.082031 C 45.421875 59.082031 42.585938 56.246094 42.585938 52.75 C 42.585938 49.253906 45.421875 46.417969 48.917969 46.417969 C 52.417969 46.417969 55.25 49.253906 55.25 52.75 C 55.25 56.246094 52.417969 59.082031 48.917969 59.082031 Z M 48.917969 48.9375 C 46.808594 48.9375 45.105469 50.652344 45.105469 52.75 C 45.105469 54.859375 46.824219 56.5625 48.917969 56.5625 C 51.03125 56.5625 52.730469 54.84375 52.730469 52.75 C 52.730469 50.636719 51.03125 48.9375 48.917969 48.9375 Z M 48.917969 48.9375 " fill-opacity="1" fill-rule="nonzero"/><g clip-path="url(#3170d79ccb)"><path fill="#ffffff" d="M 48.917969 83.199219 C 30.488281 83.199219 15.695312 68.722656 14.78125 50.765625 C 14.75 50.070312 15.285156 49.472656 15.980469 49.441406 C 16.671875 49.410156 17.269531 49.945312 17.304688 50.636719 C 17.695312 58.46875 20.988281 65.871094 26.535156 71.417969 C 38.867188 83.75 58.953125 83.75 71.304688 71.417969 C 71.808594 70.945312 72.613281 70.960938 73.085938 71.464844 C 73.542969 71.953125 73.542969 72.707031 73.085938 73.195312 C 66.6875 79.625 57.976562 83.230469 48.917969 83.199219 Z M 48.917969 83.199219 " fill-opacity="1" fill-rule="nonzero"/></g><path fill="#ffffff" d="M 81.75 51.648438 C 81.054688 51.613281 80.519531 51.03125 80.535156 50.339844 C 80.898438 41.5 77.542969 32.917969 71.304688 26.648438 C 58.953125 14.3125 38.882812 14.3125 26.535156 26.648438 C 26.03125 27.121094 25.226562 27.105469 24.753906 26.597656 C 24.296875 26.109375 24.296875 25.355469 24.753906 24.867188 C 42.429688 7.191406 72.140625 13.949219 80.851562 36.839844 C 82.503906 41.171875 83.261719 45.800781 83.054688 50.449219 C 83.039062 51.144531 82.441406 51.679688 81.75 51.648438 Z M 81.75 51.648438 " fill-opacity="1" fill-rule="nonzero"/><g clip-path="url(#0149d05435)"><path fill="#ffffff" d="M 80.773438 51.109375 L 75.257812 43.3125 C 74.863281 42.746094 74.992188 41.957031 75.558594 41.566406 C 76.125 41.171875 76.914062 41.296875 77.304688 41.863281 L 81.558594 47.882812 L 84.648438 41.1875 C 84.945312 40.554688 85.6875 40.273438 86.316406 40.574219 C 86.945312 40.871094 87.230469 41.613281 86.929688 42.242188 L 82.945312 50.921875 C 82.644531 51.550781 81.90625 51.835938 81.277344 51.535156 C 81.070312 51.441406 80.898438 51.300781 80.773438 51.109375 Z M 80.773438 51.109375 " fill-opacity="1" fill-rule="nonzero"/></g></svg>